<svg xmlns="http://www.w3.org/2000/svg" width="55.439" height="43.855" viewBox="0 0 55.439 43.855"> <defs> <linearGradient id="linear-gradient" x1=".5" x2=".5" y2="1" gradientUnits="objectBoundingBox"> <stop offset="0" stop-color="#fff"/> <stop offset="1" stop-color="#d9f88b"/> </linearGradient> </defs> <g id="Group_88650" transform="translate(-1190.539 -272)"> <g id="Group_88649"> <path id="Path_167044" fill="url(#linear-gradient)" d="M248.874 191.652a51.317 51.317 0 0 1-13.3-13.3 8.375 8.375 0 0 1-2.383-5.779 8.147 8.147 0 0 1 2.383-5.779 70.058 70.058 0 0 1 13.3-13.3 8.372 8.372 0 0 1 5.779-2.384 8.144 8.144 0 0 1 5.779 2.384 80.005 80.005 0 0 1 13.3 13.3 8.372 8.372 0 0 1 2.384 5.779 8.149 8.149 0 0 1-2.384 5.779 79.486 79.486 0 0 1-13.3 13.3 8.421 8.421 0 0 1-3.516 2.067 7.956 7.956 0 0 1-2.264.316 8.446 8.446 0 0 1-2.813-.551 9.03 9.03 0 0 1-2.965-1.832z" transform="translate(969.861 120.889)"/> <g id="Group_88199" transform="translate(1191.045 276.559)"> <path id="Path_37221" fill="#fff" stroke="#2d2d2d" stroke-linecap="round" stroke-miterlimit="10" d="M603.869 493.652c.012-.086.017-.153.017-.168a3.309 3.309 0 0 0-1.293-2.338c-1.369-1.09-2.764-.524-3.334-1.494a2.239 2.239 0 0 1 .051-1.842 3.792 3.792 0 0 1 4.08-2.436 2.107 2.107 0 0 1 1.393.9c.452.811-.3 1.391-.2 2.686a4 4 0 0 0 2.312 3.225 4.3 4.3 0 0 0 1.244.276 15.2 15.2 0 0 0 2.071-.138 9.118 9.118 0 0 1 1.727.138c1.394.2 1.721.459 2.116.448a1.758 1.758 0 0 0 .232-.035 3.1 3.1 0 0 0 1.52-2.763c-.054-1.939-2.21-2.562-1.934-3.591.259-.971 2.454-1.45 4.144-1.037a4.873 4.873 0 0 1 3.585 3.63 1.847 1.847 0 0 1-.149 1.543c-.707.829-2.334-.273-3.583.6a2.512 2.512 0 0 0-.946 2.537c.26.917 1.108.841 2.475 2.332a10.012 10.012 0 0 1 1.38 1.934c.926 1.715.693 2.607 1.415 2.881a2.793 2.793 0 0 0 2.113-.385l.059-.037c.935-.591.859-1.3 1.691-1.691a2.478 2.478 0 0 1 2.233.182c1.43.888 1.565 3.372.545 4.769a2.607 2.607 0 0 1-1.873 1.148c-.789-.015-.974-.652-2.233-1.088-.586-.2-1.521-.523-2.054-.12-.617.47-.008 1.395-.345 3.1-.384 1.935-1.528 2.563-1.133 3.4a2.148 2.148 0 0 0 1.965.871c1.118-.055 1.443-.914 2.512-.87a1.98 1.98 0 0 1 1.493.7c1.069 1.589-2.17 6.147-3.634 5.771-.508-.13-.9-.88-1.044-1.344-.221-.7.071-.961-.1-1.516a2.442 2.442 0 0 0-2.531-1.523 1.209 1.209 0 0 0-.331.1c-.6.257-.7.738-1.235 1.406a5.456 5.456 0 0 1-1.035.967 6.17 6.17 0 0 1-1.175.691 1.7 1.7 0 0 0-.652.391 2.8 2.8 0 0 0-.177 3.131c.492.928 1.127.71 1.521 1.589a2.58 2.58 0 0 1-.277 2.486 3.151 3.151 0 0 1-4.8-.129 2.6 2.6 0 0 1-.276-1.761c.193-1.22.983-1.318 1.232-2.419a3.112 3.112 0 0 0-1.025-2.96c-.928-.715-1.618-.027-3.764-.4-2.194-.38-2.814-1.33-3.735-.856a2.664 2.664 0 0 0-1.207 2.313c.03.722.444 1.16.211 1.834a1.785 1.785 0 0 1-.759.9c-1.328.795-3.92-.344-4.763-2.11a2.241 2.241 0 0 1-.211-1.724 1.931 1.931 0 0 1 .829-.967c.779-.446 1.313.006 2.211-.242a2.547 2.547 0 0 0 1.738-1.547c.31-1.145-1.181-1.6-2.2-4.037-.729-1.738-.566-2.9-1.452-3.428a3.983 3.983 0 0 0-1.985-.512h-.062a2.745 2.745 0 0 0-1.387.552c-.572.42-.449.617-.967 1.036a2.548 2.548 0 0 1-1.278.6c-1.1.03-2.22-1.75-2.451-3.365-.291-2.021.734-4.347 1.9-4.5a1.572 1.572 0 0 1 1.094.348c.562.448.372.973.846 1.543a2.842 2.842 0 0 0 1.94.8 3.4 3.4 0 0 0 2.335-.351c.717-.472.651-1.041 1.48-2.743a9.447 9.447 0 0 1 1.519-2.555c.983-1.016 2.192-1.52 2.361-2.736z" transform="translate(-590.339 -485.306)"/> <ellipse id="Ellipse_1" cx="3.754" cy="3.753" fill="#0097ff" rx="3.754" ry="3.753" transform="translate(14.671 12.775)"/> <circle id="Ellipse_2" cx="2.135" cy="2.135" r="2.135" fill="#0097ff" transform="translate(20.715 21.659)"/> </g> </g> </g></svg>