<svg xmlns="http://www.w3.org/2000/svg"  viewBox="0 0 47.948 42.547"> <defs> <linearGradient id="linear-gradient" x1=".5" x2=".5" y2="1" gradientUnits="objectBoundingBox"> <stop offset="0" stop-color="#fff"/> <stop offset="1" stop-color="#d9f88b"/> </linearGradient> </defs> <g id="Group_88640" data-name="Group 88640" transform="translate(-1199.439 -824)"> <g id="Group_88639" data-name="Group 88639"> <g id="Group_88638" data-name="Group 88638"> <path id="Path_183895" fill="url(#linear-gradient)" d="M248.736 191.3a50.869 50.869 0 0 1-13.183-13.183 8.3 8.3 0 0 1-2.362-5.729 8.076 8.076 0 0 1 2.362-5.729 69.444 69.444 0 0 1 13.183-13.182 8.3 8.3 0 0 1 5.729-2.363 8.072 8.072 0 0 1 5.729 2.363 79.3 79.3 0 0 1 13.183 13.182 8.3 8.3 0 0 1 2.363 5.729 8.077 8.077 0 0 1-2.363 5.729 78.786 78.786 0 0 1-13.184 13.183 8.347 8.347 0 0 1-3.485 2.049 7.886 7.886 0 0 1-2.244.313 8.371 8.371 0 0 1-2.788-.546 8.951 8.951 0 0 1-2.94-1.816z" data-name="Path 183895" transform="translate(971.648 672.889)"/> <g id="Group_88615" data-name="Group 88615" transform="translate(-292.355 192.503)"> <g id="Group_88614" data-name="Group 88614" transform="translate(1492.304 634.938)"> <path id="Path_154607" fill="#fff" stroke="#2d2d2d" stroke-linecap="round" stroke-miterlimit="9.996" d="M273.835 10.207a12.6 12.6 0 0 1 2.329-2.149 19.42 19.42 0 0 1 3.966-2.536 13.2 13.2 0 0 1 4.3-1.046 9.571 9.571 0 0 1 3.37.224 8.9 8.9 0 0 1 5.066 3.909 8.553 8.553 0 0 1 1.112 4.843 9.785 9.785 0 0 1-1.364 4.236 42.858 42.858 0 0 0-4.054 11.266 34.048 34.048 0 0 1-2.024 9.732 3.769 3.769 0 0 1-1.889 1.917 3.951 3.951 0 0 1-3.221-.434 5.8 5.8 0 0 1-2.445-3.4c-1.075-3.347.547-5.679-.946-7.058a2.2 2.2 0 0 0-1.65-.641 2.017 2.017 0 0 0-1.248.858c-1.4 1.842.207 4.117-.792 7.353a5.362 5.362 0 0 1-2.322 3.334 4.656 4.656 0 0 1-4.538-.075 4.193 4.193 0 0 1-1.3-1.241 15.149 15.149 0 0 1-1.411-7.969c-.28-5.449-3.89-5.521-6.075-14.006a11.177 11.177 0 0 1-.132-6.14 8.928 8.928 0 0 1 6.554-6.284 9.9 9.9 0 0 1 6.005.418 10.462 10.462 0 0 1 4.4 3.231" data-name="Path 154607" transform="translate(-258.202 -4.416)"/> <g id="Path_180482" fill="#4285f4" stroke="none" data-name="Path 180482"> <path d="M4.28 8.061C2.197 8.061.5 6.365.5 4.281.5 2.196 2.196.5 4.28.5c2.085 0 3.781 1.696 3.781 3.78 0 2.085-1.696 3.781-3.78 3.781z" transform="translate(23.823 2.943)"/> <path fill="#fff" d="M4.28 1C2.473 1 1 2.472 1 4.28c0 1.81 1.472 3.281 3.28 3.281 1.81 0 3.281-1.471 3.281-3.28C7.561 2.47 6.09 1 4.281 1m0-1c2.364 0 4.28 1.916 4.28 4.28 0 2.365-1.916 4.281-4.28 4.281C1.916 8.561 0 6.645 0 4.281 0 1.916 1.916 0 4.28 0z" transform="translate(23.823 2.943)"/> </g> </g> </g> </g> </g> </g></svg>