<svg xmlns="http://www.w3.org/2000/svg" width="76.646" height="46.032" viewBox="0 0 76.646 46.032">
    <defs>
        <linearGradient id="linear-gradient" x1=".5" x2=".5" y2="1" gradientUnits="objectBoundingBox">
            <stop offset="0" stop-color="#fff"/>
            <stop offset="1" stop-color="#d9f88b"/>
        </linearGradient>
        <style>
            .cls-3{fill:#fff}.cls-3,.cls-4,.cls-7{stroke:#2d2d2d}.cls-3,.cls-4{stroke-linecap:round}.cls-3,.cls-4,.cls-7{stroke-miterlimit:10}.cls-4{fill:#ffa7ac}.cls-7{fill:#c4ea8b}
        </style>
    </defs>
    <g id="Group_182444" data-name="Group 182444" transform="translate(13594 9868)">
        <path id="Rectangle_10240" data-name="Rectangle 10240" transform="translate(-13594 -9868)" style="fill:none" d="M0 0h76.646v45.068H0z"/>
        <g id="Group_182668" data-name="Group 182668" transform="translate(-13579.502 -9868)">
            <path id="Path_234822" data-name="Path 234822" d="M250.009 194.586a55.03 55.03 0 0 1-14.262-14.266 8.981 8.981 0 0 1-2.556-6.2 8.737 8.737 0 0 1 2.556-6.2 75.125 75.125 0 0 1 14.262-14.252 8.978 8.978 0 0 1 6.2-2.557 8.733 8.733 0 0 1 6.2 2.557 85.787 85.787 0 0 1 14.262 14.261 8.978 8.978 0 0 1 2.557 6.2 8.738 8.738 0 0 1-2.557 6.2 85.233 85.233 0 0 1-14.271 14.262 9.031 9.031 0 0 1-3.77 2.217 8.533 8.533 0 0 1-2.427.339 9.054 9.054 0 0 1-3.017-.591 9.683 9.683 0 0 1-3.177-1.97z" transform="translate(-231.191 -151.115)" style="fill:url(#linear-gradient)"/>
            <g id="Group_182667" data-name="Group 182667" transform="translate(-.72 4.201)">
                <g id="Group_182664" data-name="Group 182664">
                    <path id="Path_234820" data-name="Path 234820" class="cls-3" d="M113.564 90.577a5 5 0 0 1-7.1.1c-6.44-6.27-18.529-19.421-12.984-24.989 6.086-6.107 20.267 9.824 25.161 15.737a3.023 3.023 0 0 1-.15 4.026z" transform="translate(-88.182 -60.393)"/>
                    <path id="Line_1828" data-name="Line 1828" class="cls-4" d="M5.297 5.297 0 0"/>
                    <path id="Line_1829" data-name="Line 1829" class="cls-3" transform="translate(6.218 11.721)" d="M0 4.063 4.497 0"/>
                    <path id="Line_1830" data-name="Line 1830" class="cls-3" transform="translate(9.041 16.767)" d="M0 2.108 2.249 0"/>
                    <path id="Line_1831" data-name="Line 1831" class="cls-3" transform="translate(14.33 22.909)" d="M0 2.108 2.249 0"/>
                    <path id="Line_1832" data-name="Line 1832" class="cls-3" transform="translate(11.291 17.658)" d="M0 4.836 4.982 0"/>
                    <path id="Line_1833" data-name="Line 1833" class="cls-3" transform="translate(16.968 23.963)" d="M0 4.836 4.982 0"/>
                    <path id="Path_234821" data-name="Path 234821" class="cls-3" d="m111.14 88.045 4.379 4.532a1.127 1.127 0 0 0 1.6.019l2.184-2.159a1.212 1.212 0 0 0 0-1.723l-4.508-4.47z" transform="translate(-85.758 -57.861)"/>
                    <path id="Line_1834" data-name="Line 1834" class="cls-4" transform="translate(28.079 29.116)" d="M0 8.841 9.143 0"/>
                </g>
                <g id="Group_182663" data-name="Group 182663" transform="translate(4.063 23.719)">
                    <g id="Group_181942" data-name="Group 181942">
                        <path id="Path_158288" data-name="Path 158288" class="cls-3" d="m341.569 545.568-7.059-.145-.423-.009-2.04.153c.024-1.865.132-4.4.134-7.191h9.027c.092 1.741.23 4.283.361 7.192z" transform="translate(-330.854 -536.289)"/>
                        <path id="Path_158289" data-name="Path 158289" class="cls-3" d="M341.409 567.307c.042 1.314-.22 2.8-1.043 3.4-.506.372-1.629.392-3.857.409-2.34.023-3.519.025-4.02-.348-.822-.61-1-1.847-.945-3.542l.945.082h8.92z" transform="translate(-330.543 -553.561)"/>
                        <path id="Path_158291" data-name="Path 158291" d="M341.356 559.88c-1.665.113-3.209.272-4.821.274a42.961 42.961 0 0 1-4.959-.348c.035-.739.038-1.711.078-2.46.029-.559.062-1.2.089-1.925 1.489-.016 2.926-.259 4.68-.259 1.047 0 2.224.08 3.529.158.217.012.13.035 1.318.107.038.717.054 1.444.088 2.181.042.858.002 1.614-.002 2.272z" transform="translate(-330.55 -546.177)" style="fill:#0097ff;stroke:#0097ff;stroke-miterlimit:10"/>
                        <path id="Path_158290" data-name="Path 158290" d="M329.281 533.912c.451-.89 2.064-.668 5.683-.667 3.494 0 5.031-.205 5.478.667a5.45 5.45 0 0 1 .123 1.846 5.119 5.119 0 0 1-.123 1.683c-.476.9-2.161.6-5.55.6-3.426 0-5.138.316-5.611-.6a5.54 5.54 0 0 1-.113-1.744 5.745 5.745 0 0 1 .113-1.785z" transform="translate(-329.143 -533.219)" style="stroke-miterlimit:10;stroke:#2d2d2d;fill:#fff"/>
                        <path id="Path_158292" data-name="Path 158292" class="cls-7" d="M331.545 560.848c-.022-.73.053-2.075.1-3.094.029-.589.072-1.714.1-2.479" transform="translate(-330.548 -546.598)"/>
                        <path id="Path_158293" data-name="Path 158293" class="cls-7" d="M355.532 555.161c.012.662.09 2.079.119 2.88.039.907.069 2.156.064 2.85" transform="translate(-344.849 -546.614)"/>
                    </g>
                </g>
            </g>
        </g>
    </g>
</svg>
